<?xml version="1.0" encoding="UTF-8"?>
<!DOCTYPE svg PUBLIC "-//W3C//DTD SVG 1.1//EN" "http://www.w3.org/Graphics/SVG/1.1/DTD/svg11.dtd">
<svg width="220mm" height="123mm" viewBox="0 0 22000 12300" version="1.1" xmlns="http://www.w3.org/2000/svg" xmlns:xlink="http://www.w3.org/1999/xlink" stroke-width="28.222" stroke-linejoin="round" xml:space="preserve">
 <path fill="rgb(255,255,255)" stroke="none" d="M 10993,12264 L 0,12264 0,0 21986,0 21986,12264 10993,12264 Z"/>
 <path fill="none" stroke="rgb(179,179,179)" stroke-linejoin="round" d="M 10091,10391 L 2362,10391 2362,2533 17820,2533 17820,10391 10091,10391 Z"/>
 <path fill="none" stroke="rgb(179,179,179)" stroke-linejoin="round" d="M 2362,2531 L 2362,10390"/>
 <path fill="none" stroke="rgb(179,179,179)" stroke-linejoin="round" d="M 3328,2531 L 3328,10390"/>
 <path fill="none" stroke="rgb(179,179,179)" stroke-linejoin="round" d="M 4294,2531 L 4294,10390"/>
 <path fill="none" stroke="rgb(179,179,179)" stroke-linejoin="round" d="M 5260,2531 L 5260,10390"/>
 <path fill="none" stroke="rgb(179,179,179)" stroke-linejoin="round" d="M 6226,2531 L 6226,10390"/>
 <path fill="none" stroke="rgb(179,179,179)" stroke-linejoin="round" d="M 7192,2531 L 7192,10390"/>
 <path fill="none" stroke="rgb(179,179,179)" stroke-linejoin="round" d="M 8159,2531 L 8159,10390"/>
 <path fill="none" stroke="rgb(179,179,179)" stroke-linejoin="round" d="M 9125,2531 L 9125,10390"/>
 <path fill="none" stroke="rgb(179,179,179)" stroke-linejoin="round" d="M 10091,2531 L 10091,10390"/>
 <path fill="none" stroke="rgb(179,179,179)" stroke-linejoin="round" d="M 11056,2531 L 11056,10390"/>
 <path fill="none" stroke="rgb(179,179,179)" stroke-linejoin="round" d="M 12022,2531 L 12022,10390"/>
 <path fill="none" stroke="rgb(179,179,179)" stroke-linejoin="round" d="M 12989,2531 L 12989,10390"/>
 <path fill="none" stroke="rgb(179,179,179)" stroke-linejoin="round" d="M 13955,2531 L 13955,10390"/>
 <path fill="none" stroke="rgb(179,179,179)" stroke-linejoin="round" d="M 14921,2531 L 14921,10390"/>
 <path fill="none" stroke="rgb(179,179,179)" stroke-linejoin="round" d="M 15887,2531 L 15887,10390"/>
 <path fill="none" stroke="rgb(179,179,179)" stroke-linejoin="round" d="M 16853,2531 L 16853,10390"/>
 <path fill="none" stroke="rgb(179,179,179)" stroke-linejoin="round" d="M 17820,2531 L 17820,10390"/>
 <path fill="none" stroke="rgb(179,179,179)" stroke-linejoin="round" d="M 17820,10390 L 2362,10390"/>
 <path fill="none" stroke="rgb(179,179,179)" stroke-linejoin="round" d="M 17820,9516 L 2362,9516"/>
 <path fill="none" stroke="rgb(179,179,179)" stroke-linejoin="round" d="M 17820,8643 L 2362,8643"/>
 <path fill="none" stroke="rgb(179,179,179)" stroke-linejoin="round" d="M 17820,7770 L 2362,7770"/>
 <path fill="none" stroke="rgb(179,179,179)" stroke-linejoin="round" d="M 17820,6897 L 2362,6897"/>
 <path fill="none" stroke="rgb(179,179,179)" stroke-linejoin="round" d="M 17820,6024 L 2362,6024"/>
 <path fill="none" stroke="rgb(179,179,179)" stroke-linejoin="round" d="M 17820,5151 L 2362,5151"/>
 <path fill="none" stroke="rgb(179,179,179)" stroke-linejoin="round" d="M 17820,4278 L 2362,4278"/>
 <path fill="none" stroke="rgb(179,179,179)" stroke-linejoin="round" d="M 17820,3405 L 2362,3405"/>
 <path fill="none" stroke="rgb(179,179,179)" stroke-linejoin="round" d="M 17820,2531 L 2362,2531"/>
 <path fill="none" stroke="rgb(179,179,179)" stroke-width="102" stroke-linejoin="round" d="M 2362,10540 L 2362,10390"/>
 <path fill="none" stroke="rgb(179,179,179)" stroke-width="102" stroke-linejoin="round" d="M 2362,10540 L 2362,10390"/>
 <path fill="none" stroke="rgb(179,179,179)" stroke-width="102" stroke-linejoin="round" d="M 3328,10540 L 3328,10390"/>
 <path fill="none" stroke="rgb(179,179,179)" stroke-width="102" stroke-linejoin="round" d="M 3328,10540 L 3328,10390"/>
 <path fill="none" stroke="rgb(179,179,179)" stroke-width="102" stroke-linejoin="round" d="M 4294,10540 L 4294,10390"/>
 <path fill="none" stroke="rgb(179,179,179)" stroke-width="102" stroke-linejoin="round" d="M 4294,10540 L 4294,10390"/>
 <path fill="none" stroke="rgb(179,179,179)" stroke-width="102" stroke-linejoin="round" d="M 5260,10540 L 5260,10390"/>
 <path fill="none" stroke="rgb(179,179,179)" stroke-width="102" stroke-linejoin="round" d="M 5260,10540 L 5260,10390"/>
 <path fill="none" stroke="rgb(179,179,179)" stroke-width="102" stroke-linejoin="round" d="M 6226,10540 L 6226,10390"/>
 <path fill="none" stroke="rgb(179,179,179)" stroke-width="102" stroke-linejoin="round" d="M 6226,10540 L 6226,10390"/>
 <path fill="none" stroke="rgb(179,179,179)" stroke-width="102" stroke-linejoin="round" d="M 7192,10540 L 7192,10390"/>
 <path fill="none" stroke="rgb(179,179,179)" stroke-width="102" stroke-linejoin="round" d="M 7192,10540 L 7192,10390"/>
 <path fill="none" stroke="rgb(179,179,179)" stroke-width="102" stroke-linejoin="round" d="M 8159,10540 L 8159,10390"/>
 <path fill="none" stroke="rgb(179,179,179)" stroke-width="102" stroke-linejoin="round" d="M 8159,10540 L 8159,10390"/>
 <path fill="none" stroke="rgb(179,179,179)" stroke-width="102" stroke-linejoin="round" d="M 9125,10540 L 9125,10390"/>
 <path fill="none" stroke="rgb(179,179,179)" stroke-width="102" stroke-linejoin="round" d="M 9125,10540 L 9125,10390"/>
 <path fill="none" stroke="rgb(179,179,179)" stroke-width="102" stroke-linejoin="round" d="M 10091,10540 L 10091,10390"/>
 <path fill="none" stroke="rgb(179,179,179)" stroke-width="102" stroke-linejoin="round" d="M 10091,10540 L 10091,10390"/>
 <path fill="none" stroke="rgb(179,179,179)" stroke-width="102" stroke-linejoin="round" d="M 11056,10540 L 11056,10390"/>
 <path fill="none" stroke="rgb(179,179,179)" stroke-width="102" stroke-linejoin="round" d="M 11056,10540 L 11056,10390"/>
 <path fill="none" stroke="rgb(179,179,179)" stroke-width="102" stroke-linejoin="round" d="M 12022,10540 L 12022,10390"/>
 <path fill="none" stroke="rgb(179,179,179)" stroke-width="102" stroke-linejoin="round" d="M 12022,10540 L 12022,10390"/>
 <path fill="none" stroke="rgb(179,179,179)" stroke-width="102" stroke-linejoin="round" d="M 12989,10540 L 12989,10390"/>
 <path fill="none" stroke="rgb(179,179,179)" stroke-width="102" stroke-linejoin="round" d="M 12989,10540 L 12989,10390"/>
 <path fill="none" stroke="rgb(179,179,179)" stroke-width="102" stroke-linejoin="round" d="M 13955,10540 L 13955,10390"/>
 <path fill="none" stroke="rgb(179,179,179)" stroke-width="102" stroke-linejoin="round" d="M 13955,10540 L 13955,10390"/>
 <path fill="none" stroke="rgb(179,179,179)" stroke-width="102" stroke-linejoin="round" d="M 14921,10540 L 14921,10390"/>
 <path fill="none" stroke="rgb(179,179,179)" stroke-width="102" stroke-linejoin="round" d="M 14921,10540 L 14921,10390"/>
 <path fill="none" stroke="rgb(179,179,179)" stroke-width="102" stroke-linejoin="round" d="M 15887,10540 L 15887,10390"/>
 <path fill="none" stroke="rgb(179,179,179)" stroke-width="102" stroke-linejoin="round" d="M 15887,10540 L 15887,10390"/>
 <path fill="none" stroke="rgb(179,179,179)" stroke-width="102" stroke-linejoin="round" d="M 16853,10540 L 16853,10390"/>
 <path fill="none" stroke="rgb(179,179,179)" stroke-width="102" stroke-linejoin="round" d="M 16853,10540 L 16853,10390"/>
 <path fill="none" stroke="rgb(179,179,179)" stroke-width="102" stroke-linejoin="round" d="M 17820,10540 L 17820,10390"/>
 <path fill="none" stroke="rgb(179,179,179)" stroke-width="102" stroke-linejoin="round" d="M 17820,10540 L 17820,10390"/>
 <path fill="none" stroke="rgb(179,179,179)" stroke-width="102" stroke-linejoin="round" d="M 2362,10390 L 17820,10390"/>
 <path fill="none" stroke="rgb(179,179,179)" stroke-linejoin="round" d="M 2212,10390 L 2362,10390"/>
 <path fill="none" stroke="rgb(179,179,179)" stroke-linejoin="round" d="M 2212,10390 L 2362,10390"/>
 <path fill="none" stroke="rgb(179,179,179)" stroke-linejoin="round" d="M 2212,9516 L 2362,9516"/>
 <path fill="none" stroke="rgb(179,179,179)" stroke-linejoin="round" d="M 2212,9516 L 2362,9516"/>
 <path fill="none" stroke="rgb(179,179,179)" stroke-linejoin="round" d="M 2212,8643 L 2362,8643"/>
 <path fill="none" stroke="rgb(179,179,179)" stroke-linejoin="round" d="M 2212,8643 L 2362,8643"/>
 <path fill="none" stroke="rgb(179,179,179)" stroke-linejoin="round" d="M 2212,7770 L 2362,7770"/>
 <path fill="none" stroke="rgb(179,179,179)" stroke-linejoin="round" d="M 2212,7770 L 2362,7770"/>
 <path fill="none" stroke="rgb(179,179,179)" stroke-linejoin="round" d="M 2212,6897 L 2362,6897"/>
 <path fill="none" stroke="rgb(179,179,179)" stroke-linejoin="round" d="M 2212,6897 L 2362,6897"/>
 <path fill="none" stroke="rgb(179,179,179)" stroke-linejoin="round" d="M 2212,6024 L 2362,6024"/>
 <path fill="none" stroke="rgb(179,179,179)" stroke-linejoin="round" d="M 2212,6024 L 2362,6024"/>
 <path fill="none" stroke="rgb(179,179,179)" stroke-linejoin="round" d="M 2212,5151 L 2362,5151"/>
 <path fill="none" stroke="rgb(179,179,179)" stroke-linejoin="round" d="M 2212,5151 L 2362,5151"/>
 <path fill="none" stroke="rgb(179,179,179)" stroke-linejoin="round" d="M 2212,4278 L 2362,4278"/>
 <path fill="none" stroke="rgb(179,179,179)" stroke-linejoin="round" d="M 2212,4278 L 2362,4278"/>
 <path fill="none" stroke="rgb(179,179,179)" stroke-linejoin="round" d="M 2212,3405 L 2362,3405"/>
 <path fill="none" stroke="rgb(179,179,179)" stroke-linejoin="round" d="M 2212,3405 L 2362,3405"/>
 <path fill="none" stroke="rgb(179,179,179)" stroke-linejoin="round" d="M 2212,2531 L 2362,2531"/>
 <path fill="none" stroke="rgb(179,179,179)" stroke-linejoin="round" d="M 2212,2531 L 2362,2531"/>
 <path fill="none" stroke="rgb(179,179,179)" stroke-linejoin="round" d="M 2362,10390 L 2362,2531"/>
 <path fill="none" stroke="rgb(255,64,0)" stroke-width="102" stroke-linejoin="round" d="M 2362,2991 L 3328,5452 4294,6265 5260,6697 6226,6965 7192,7115 8159,7211 9125,7298 10091,7327 11056,7368 12022,7389 12989,7382 13955,7428 14921,7433 15887,7428 16853,7446 17820,7445"/>
 <text class="TextShape"><tspan class="TextParagraph" font-family="Liberation Sans, sans-serif" font-size="353px" font-weight="400"><tspan class="TextPosition" x="2269" y="10958"><tspan fill="rgb(0,0,0)" stroke="none">1</tspan></tspan></tspan></text>
 <text class="TextShape"><tspan class="TextParagraph" font-family="Liberation Sans, sans-serif" font-size="353px" font-weight="400"><tspan class="TextPosition" x="3235" y="10958"><tspan fill="rgb(0,0,0)" stroke="none">2</tspan></tspan></tspan></text>
 <text class="TextShape"><tspan class="TextParagraph" font-family="Liberation Sans, sans-serif" font-size="353px" font-weight="400"><tspan class="TextPosition" x="4201" y="10958"><tspan fill="rgb(0,0,0)" stroke="none">3</tspan></tspan></tspan></text>
 <text class="TextShape"><tspan class="TextParagraph" font-family="Liberation Sans, sans-serif" font-size="353px" font-weight="400"><tspan class="TextPosition" x="5167" y="10958"><tspan fill="rgb(0,0,0)" stroke="none">4</tspan></tspan></tspan></text>
 <text class="TextShape"><tspan class="TextParagraph" font-family="Liberation Sans, sans-serif" font-size="353px" font-weight="400"><tspan class="TextPosition" x="6133" y="10958"><tspan fill="rgb(0,0,0)" stroke="none">5</tspan></tspan></tspan></text>
 <text class="TextShape"><tspan class="TextParagraph" font-family="Liberation Sans, sans-serif" font-size="353px" font-weight="400"><tspan class="TextPosition" x="7099" y="10958"><tspan fill="rgb(0,0,0)" stroke="none">6</tspan></tspan></tspan></text>
 <text class="TextShape"><tspan class="TextParagraph" font-family="Liberation Sans, sans-serif" font-size="353px" font-weight="400"><tspan class="TextPosition" x="8066" y="10958"><tspan fill="rgb(0,0,0)" stroke="none">7</tspan></tspan></tspan></text>
 <text class="TextShape"><tspan class="TextParagraph" font-family="Liberation Sans, sans-serif" font-size="353px" font-weight="400"><tspan class="TextPosition" x="9032" y="10958"><tspan fill="rgb(0,0,0)" stroke="none">8</tspan></tspan></tspan></text>
 <text class="TextShape"><tspan class="TextParagraph" font-family="Liberation Sans, sans-serif" font-size="353px" font-weight="400"><tspan class="TextPosition" x="9998" y="10958"><tspan fill="rgb(0,0,0)" stroke="none">9</tspan></tspan></tspan></text>
 <text class="TextShape"><tspan class="TextParagraph" font-family="Liberation Sans, sans-serif" font-size="353px" font-weight="400"><tspan class="TextPosition" x="10872" y="10958"><tspan fill="rgb(0,0,0)" stroke="none">10</tspan></tspan></tspan></text>
 <text class="TextShape"><tspan class="TextParagraph" font-family="Liberation Sans, sans-serif" font-size="353px" font-weight="400"><tspan class="TextPosition" x="11838" y="10958"><tspan fill="rgb(0,0,0)" stroke="none">11</tspan></tspan></tspan></text>
 <text class="TextShape"><tspan class="TextParagraph" font-family="Liberation Sans, sans-serif" font-size="353px" font-weight="400"><tspan class="TextPosition" x="12805" y="10958"><tspan fill="rgb(0,0,0)" stroke="none">12</tspan></tspan></tspan></text>
 <text class="TextShape"><tspan class="TextParagraph" font-family="Liberation Sans, sans-serif" font-size="353px" font-weight="400"><tspan class="TextPosition" x="13771" y="10958"><tspan fill="rgb(0,0,0)" stroke="none">13</tspan></tspan></tspan></text>
 <text class="TextShape"><tspan class="TextParagraph" font-family="Liberation Sans, sans-serif" font-size="353px" font-weight="400"><tspan class="TextPosition" x="14737" y="10958"><tspan fill="rgb(0,0,0)" stroke="none">14</tspan></tspan></tspan></text>
 <text class="TextShape"><tspan class="TextParagraph" font-family="Liberation Sans, sans-serif" font-size="353px" font-weight="400"><tspan class="TextPosition" x="15703" y="10958"><tspan fill="rgb(0,0,0)" stroke="none">15</tspan></tspan></tspan></text>
 <text class="TextShape"><tspan class="TextParagraph" font-family="Liberation Sans, sans-serif" font-size="353px" font-weight="400"><tspan class="TextPosition" x="16669" y="10958"><tspan fill="rgb(0,0,0)" stroke="none">16</tspan></tspan></tspan></text>
 <text class="TextShape"><tspan class="TextParagraph" font-family="Liberation Sans, sans-serif" font-size="353px" font-weight="400"><tspan class="TextPosition" x="17636" y="10958"><tspan fill="rgb(0,0,0)" stroke="none">17</tspan></tspan></tspan></text>
 <text class="TextShape"><tspan class="TextParagraph" font-family="Liberation Sans, sans-serif" font-size="353px" font-weight="400"><tspan class="TextPosition" x="1927" y="10511"><tspan fill="rgb(0,0,0)" stroke="none">0</tspan></tspan></tspan></text>
 <text class="TextShape"><tspan class="TextParagraph" font-family="Liberation Sans, sans-serif" font-size="353px" font-weight="400"><tspan class="TextPosition" x="1451" y="9637"><tspan fill="rgb(0,0,0)" stroke="none">0.05</tspan></tspan></tspan></text>
 <text class="TextShape"><tspan class="TextParagraph" font-family="Liberation Sans, sans-serif" font-size="353px" font-weight="400"><tspan class="TextPosition" x="1636" y="8764"><tspan fill="rgb(0,0,0)" stroke="none">0.1</tspan></tspan></tspan></text>
 <text class="TextShape"><tspan class="TextParagraph" font-family="Liberation Sans, sans-serif" font-size="353px" font-weight="400"><tspan class="TextPosition" x="1451" y="7891"><tspan fill="rgb(0,0,0)" stroke="none">0.15</tspan></tspan></tspan></text>
 <text class="TextShape"><tspan class="TextParagraph" font-family="Liberation Sans, sans-serif" font-size="353px" font-weight="400"><tspan class="TextPosition" x="1636" y="7018"><tspan fill="rgb(0,0,0)" stroke="none">0.2</tspan></tspan></tspan></text>
 <text class="TextShape"><tspan class="TextParagraph" font-family="Liberation Sans, sans-serif" font-size="353px" font-weight="400"><tspan class="TextPosition" x="1451" y="6144"><tspan fill="rgb(0,0,0)" stroke="none">0.25</tspan></tspan></tspan></text>
 <text class="TextShape"><tspan class="TextParagraph" font-family="Liberation Sans, sans-serif" font-size="353px" font-weight="400"><tspan class="TextPosition" x="1636" y="5271"><tspan fill="rgb(0,0,0)" stroke="none">0.3</tspan></tspan></tspan></text>
 <text class="TextShape"><tspan class="TextParagraph" font-family="Liberation Sans, sans-serif" font-size="353px" font-weight="400"><tspan class="TextPosition" x="1451" y="4398"><tspan fill="rgb(0,0,0)" stroke="none">0.35</tspan></tspan></tspan></text>
 <text class="TextShape"><tspan class="TextParagraph" font-family="Liberation Sans, sans-serif" font-size="353px" font-weight="400"><tspan class="TextPosition" x="1636" y="3525"><tspan fill="rgb(0,0,0)" stroke="none">0.4</tspan></tspan></tspan></text>
 <text class="TextShape"><tspan class="TextParagraph" font-family="Liberation Sans, sans-serif" font-size="353px" font-weight="400"><tspan class="TextPosition" x="1451" y="2651"><tspan fill="rgb(0,0,0)" stroke="none">0.45</tspan></tspan></tspan></text>
 <text class="TextShape"><tspan class="TextParagraph" font-family="Liberation Sans, sans-serif" font-size="459px" font-weight="400"><tspan class="TextPosition" x="9657" y="916"><tspan fill="rgb(0,0,0)" stroke="none">Training Loss</tspan></tspan></tspan></text>
 <text class="TextShape"><tspan class="TextParagraph" font-family="Liberation Sans, sans-serif" font-size="388px" font-weight="400"><tspan class="TextPosition" x="8413" y="1891"><tspan fill="rgb(0,0,0)" stroke="none">Rubix ML Logistic Regression</tspan></tspan></tspan></text>
 <path fill="none" stroke="rgb(255,64,0)" stroke-width="102" stroke-linejoin="round" d="M 18562,6131 L 19362,6131"/>
 <text class="TextShape"><tspan class="TextParagraph" font-family="Liberation Sans, sans-serif" font-size="353px" font-weight="400"><tspan class="TextPosition" x="19462" y="6250"><tspan fill="rgb(0,0,0)" stroke="none">Cross Entropy</tspan></tspan></tspan></text>
 <text class="TextShape"><tspan class="TextParagraph" font-family="Liberation Sans, sans-serif" font-size="318px" font-weight="400"><tspan class="TextPosition" x="9266" y="11670"><tspan fill="rgb(0,0,0)" stroke="none">Epoch</tspan></tspan></tspan></text>
 <text class="TextShape" transform="rotate(-90 837 7029)"><tspan class="TextParagraph" font-family="Liberation Sans, sans-serif" font-size="318px" font-weight="400"><tspan class="TextPosition" x="837" y="7029"><tspan fill="rgb(0,0,0)" stroke="none">Loss</tspan></tspan></tspan></text>
</svg>