<?xml version="1.0" encoding="UTF-8"?>
<!DOCTYPE svg PUBLIC "-//W3C//DTD SVG 1.1//EN" "http://www.w3.org/Graphics/SVG/1.1/DTD/svg11.dtd">
<svg width="207mm" height="116mm" viewBox="0 0 20700 11600" version="1.1" xmlns="http://www.w3.org/2000/svg" xmlns:xlink="http://www.w3.org/1999/xlink" stroke-width="28.222" stroke-linejoin="round" xml:space="preserve">
 <path fill="rgb(255,255,255)" stroke="none" d="M 10347,11640 L 0,11640 0,0 20694,0 20694,11640 10347,11640 Z"/>
 <path fill="none" stroke="rgb(179,179,179)" stroke-linejoin="round" d="M 10133,9780 L 2151,9780 2151,2494 18115,2494 18115,9780 10133,9780 Z"/>
 <path fill="none" stroke="rgb(179,179,179)" stroke-linejoin="round" d="M 18115,9779 L 2151,9779"/>
 <path fill="none" stroke="rgb(179,179,179)" stroke-linejoin="round" d="M 18115,8564 L 2151,8564"/>
 <path fill="none" stroke="rgb(179,179,179)" stroke-linejoin="round" d="M 18115,7350 L 2151,7350"/>
 <path fill="none" stroke="rgb(179,179,179)" stroke-linejoin="round" d="M 18115,6135 L 2151,6135"/>
 <path fill="none" stroke="rgb(179,179,179)" stroke-linejoin="round" d="M 18115,4921 L 2151,4921"/>
 <path fill="none" stroke="rgb(179,179,179)" stroke-linejoin="round" d="M 18115,3707 L 2151,3707"/>
 <path fill="none" stroke="rgb(179,179,179)" stroke-linejoin="round" d="M 18115,2492 L 2151,2492"/>
 <path fill="none" stroke="rgb(179,179,179)" stroke-linejoin="round" d="M 2151,9929 L 2151,9779"/>
 <path fill="none" stroke="rgb(179,179,179)" stroke-linejoin="round" d="M 2151,9929 L 2151,9779"/>
 <path fill="none" stroke="rgb(179,179,179)" stroke-linejoin="round" d="M 2845,9929 L 2845,9779"/>
 <path fill="none" stroke="rgb(179,179,179)" stroke-linejoin="round" d="M 2845,9929 L 2845,9779"/>
 <path fill="none" stroke="rgb(179,179,179)" stroke-linejoin="round" d="M 3539,9929 L 3539,9779"/>
 <path fill="none" stroke="rgb(179,179,179)" stroke-linejoin="round" d="M 3539,9929 L 3539,9779"/>
 <path fill="none" stroke="rgb(179,179,179)" stroke-linejoin="round" d="M 4233,9929 L 4233,9779"/>
 <path fill="none" stroke="rgb(179,179,179)" stroke-linejoin="round" d="M 4233,9929 L 4233,9779"/>
 <path fill="none" stroke="rgb(179,179,179)" stroke-linejoin="round" d="M 4927,9929 L 4927,9779"/>
 <path fill="none" stroke="rgb(179,179,179)" stroke-linejoin="round" d="M 4927,9929 L 4927,9779"/>
 <path fill="none" stroke="rgb(179,179,179)" stroke-linejoin="round" d="M 5621,9929 L 5621,9779"/>
 <path fill="none" stroke="rgb(179,179,179)" stroke-linejoin="round" d="M 5621,9929 L 5621,9779"/>
 <path fill="none" stroke="rgb(179,179,179)" stroke-linejoin="round" d="M 6315,9929 L 6315,9779"/>
 <path fill="none" stroke="rgb(179,179,179)" stroke-linejoin="round" d="M 6315,9929 L 6315,9779"/>
 <path fill="none" stroke="rgb(179,179,179)" stroke-linejoin="round" d="M 7009,9929 L 7009,9779"/>
 <path fill="none" stroke="rgb(179,179,179)" stroke-linejoin="round" d="M 7009,9929 L 7009,9779"/>
 <path fill="none" stroke="rgb(179,179,179)" stroke-linejoin="round" d="M 7704,9929 L 7704,9779"/>
 <path fill="none" stroke="rgb(179,179,179)" stroke-linejoin="round" d="M 7704,9929 L 7704,9779"/>
 <path fill="none" stroke="rgb(179,179,179)" stroke-linejoin="round" d="M 8398,9929 L 8398,9779"/>
 <path fill="none" stroke="rgb(179,179,179)" stroke-linejoin="round" d="M 8398,9929 L 8398,9779"/>
 <path fill="none" stroke="rgb(179,179,179)" stroke-linejoin="round" d="M 9092,9929 L 9092,9779"/>
 <path fill="none" stroke="rgb(179,179,179)" stroke-linejoin="round" d="M 9092,9929 L 9092,9779"/>
 <path fill="none" stroke="rgb(179,179,179)" stroke-linejoin="round" d="M 9786,9929 L 9786,9779"/>
 <path fill="none" stroke="rgb(179,179,179)" stroke-linejoin="round" d="M 9786,9929 L 9786,9779"/>
 <path fill="none" stroke="rgb(179,179,179)" stroke-linejoin="round" d="M 10479,9929 L 10479,9779"/>
 <path fill="none" stroke="rgb(179,179,179)" stroke-linejoin="round" d="M 10479,9929 L 10479,9779"/>
 <path fill="none" stroke="rgb(179,179,179)" stroke-linejoin="round" d="M 11173,9929 L 11173,9779"/>
 <path fill="none" stroke="rgb(179,179,179)" stroke-linejoin="round" d="M 11173,9929 L 11173,9779"/>
 <path fill="none" stroke="rgb(179,179,179)" stroke-linejoin="round" d="M 11867,9929 L 11867,9779"/>
 <path fill="none" stroke="rgb(179,179,179)" stroke-linejoin="round" d="M 11867,9929 L 11867,9779"/>
 <path fill="none" stroke="rgb(179,179,179)" stroke-linejoin="round" d="M 12561,9929 L 12561,9779"/>
 <path fill="none" stroke="rgb(179,179,179)" stroke-linejoin="round" d="M 12561,9929 L 12561,9779"/>
 <path fill="none" stroke="rgb(179,179,179)" stroke-linejoin="round" d="M 13256,9929 L 13256,9779"/>
 <path fill="none" stroke="rgb(179,179,179)" stroke-linejoin="round" d="M 13256,9929 L 13256,9779"/>
 <path fill="none" stroke="rgb(179,179,179)" stroke-linejoin="round" d="M 13950,9929 L 13950,9779"/>
 <path fill="none" stroke="rgb(179,179,179)" stroke-linejoin="round" d="M 13950,9929 L 13950,9779"/>
 <path fill="none" stroke="rgb(179,179,179)" stroke-linejoin="round" d="M 14644,9929 L 14644,9779"/>
 <path fill="none" stroke="rgb(179,179,179)" stroke-linejoin="round" d="M 14644,9929 L 14644,9779"/>
 <path fill="none" stroke="rgb(179,179,179)" stroke-linejoin="round" d="M 15338,9929 L 15338,9779"/>
 <path fill="none" stroke="rgb(179,179,179)" stroke-linejoin="round" d="M 15338,9929 L 15338,9779"/>
 <path fill="none" stroke="rgb(179,179,179)" stroke-linejoin="round" d="M 16032,9929 L 16032,9779"/>
 <path fill="none" stroke="rgb(179,179,179)" stroke-linejoin="round" d="M 16032,9929 L 16032,9779"/>
 <path fill="none" stroke="rgb(179,179,179)" stroke-linejoin="round" d="M 16726,9929 L 16726,9779"/>
 <path fill="none" stroke="rgb(179,179,179)" stroke-linejoin="round" d="M 16726,9929 L 16726,9779"/>
 <path fill="none" stroke="rgb(179,179,179)" stroke-linejoin="round" d="M 17420,9929 L 17420,9779"/>
 <path fill="none" stroke="rgb(179,179,179)" stroke-linejoin="round" d="M 17420,9929 L 17420,9779"/>
 <path fill="none" stroke="rgb(179,179,179)" stroke-linejoin="round" d="M 18115,9929 L 18115,9779"/>
 <path fill="none" stroke="rgb(179,179,179)" stroke-linejoin="round" d="M 18115,9929 L 18115,9779"/>
 <path fill="none" stroke="rgb(179,179,179)" stroke-linejoin="round" d="M 2151,9779 L 18115,9779"/>
 <path fill="none" stroke="rgb(179,179,179)" stroke-linejoin="round" d="M 2001,9779 L 2151,9779"/>
 <path fill="none" stroke="rgb(179,179,179)" stroke-linejoin="round" d="M 2001,9779 L 2151,9779"/>
 <path fill="none" stroke="rgb(179,179,179)" stroke-linejoin="round" d="M 2001,8564 L 2151,8564"/>
 <path fill="none" stroke="rgb(179,179,179)" stroke-linejoin="round" d="M 2001,8564 L 2151,8564"/>
 <path fill="none" stroke="rgb(179,179,179)" stroke-linejoin="round" d="M 2001,7350 L 2151,7350"/>
 <path fill="none" stroke="rgb(179,179,179)" stroke-linejoin="round" d="M 2001,7350 L 2151,7350"/>
 <path fill="none" stroke="rgb(179,179,179)" stroke-linejoin="round" d="M 2001,6135 L 2151,6135"/>
 <path fill="none" stroke="rgb(179,179,179)" stroke-linejoin="round" d="M 2001,6135 L 2151,6135"/>
 <path fill="none" stroke="rgb(179,179,179)" stroke-linejoin="round" d="M 2001,4921 L 2151,4921"/>
 <path fill="none" stroke="rgb(179,179,179)" stroke-linejoin="round" d="M 2001,4921 L 2151,4921"/>
 <path fill="none" stroke="rgb(179,179,179)" stroke-linejoin="round" d="M 2001,3707 L 2151,3707"/>
 <path fill="none" stroke="rgb(179,179,179)" stroke-linejoin="round" d="M 2001,3707 L 2151,3707"/>
 <path fill="none" stroke="rgb(179,179,179)" stroke-linejoin="round" d="M 2001,2492 L 2151,2492"/>
 <path fill="none" stroke="rgb(179,179,179)" stroke-linejoin="round" d="M 2001,2492 L 2151,2492"/>
 <path fill="none" stroke="rgb(179,179,179)" stroke-linejoin="round" d="M 2151,9779 L 2151,2492"/>
 <path fill="none" stroke="rgb(255,56,56)" stroke-width="80" stroke-linejoin="round" d="M 2151,3590 L 2845,5456 3539,6069 4233,6459 4927,6724 5621,6927 6315,7087 7009,7216 7704,7309 8398,7396 9092,7453 9786,7520 10479,7565 11173,7594 11867,7633 12561,7662 13256,7666 13950,7693 14644,7697 15338,7717 16032,7722 16726,7719 17420,7733 18115,7733"/>
 <text class="TextShape"><tspan class="TextParagraph" font-family="Liberation Sans, sans-serif" font-size="353px" font-weight="400"><tspan class="TextPosition" x="2058" y="10347"><tspan fill="rgb(0,0,0)" stroke="none">1</tspan></tspan></tspan></text>
 <text class="TextShape"><tspan class="TextParagraph" font-family="Liberation Sans, sans-serif" font-size="353px" font-weight="400"><tspan class="TextPosition" x="2752" y="10347"><tspan fill="rgb(0,0,0)" stroke="none">2</tspan></tspan></tspan></text>
 <text class="TextShape"><tspan class="TextParagraph" font-family="Liberation Sans, sans-serif" font-size="353px" font-weight="400"><tspan class="TextPosition" x="3446" y="10347"><tspan fill="rgb(0,0,0)" stroke="none">3</tspan></tspan></tspan></text>
 <text class="TextShape"><tspan class="TextParagraph" font-family="Liberation Sans, sans-serif" font-size="353px" font-weight="400"><tspan class="TextPosition" x="4140" y="10347"><tspan fill="rgb(0,0,0)" stroke="none">4</tspan></tspan></tspan></text>
 <text class="TextShape"><tspan class="TextParagraph" font-family="Liberation Sans, sans-serif" font-size="353px" font-weight="400"><tspan class="TextPosition" x="4834" y="10347"><tspan fill="rgb(0,0,0)" stroke="none">5</tspan></tspan></tspan></text>
 <text class="TextShape"><tspan class="TextParagraph" font-family="Liberation Sans, sans-serif" font-size="353px" font-weight="400"><tspan class="TextPosition" x="5528" y="10347"><tspan fill="rgb(0,0,0)" stroke="none">6</tspan></tspan></tspan></text>
 <text class="TextShape"><tspan class="TextParagraph" font-family="Liberation Sans, sans-serif" font-size="353px" font-weight="400"><tspan class="TextPosition" x="6222" y="10347"><tspan fill="rgb(0,0,0)" stroke="none">7</tspan></tspan></tspan></text>
 <text class="TextShape"><tspan class="TextParagraph" font-family="Liberation Sans, sans-serif" font-size="353px" font-weight="400"><tspan class="TextPosition" x="6916" y="10347"><tspan fill="rgb(0,0,0)" stroke="none">8</tspan></tspan></tspan></text>
 <text class="TextShape"><tspan class="TextParagraph" font-family="Liberation Sans, sans-serif" font-size="353px" font-weight="400"><tspan class="TextPosition" x="7611" y="10347"><tspan fill="rgb(0,0,0)" stroke="none">9</tspan></tspan></tspan></text>
 <text class="TextShape"><tspan class="TextParagraph" font-family="Liberation Sans, sans-serif" font-size="353px" font-weight="400"><tspan class="TextPosition" x="8213" y="10347"><tspan fill="rgb(0,0,0)" stroke="none">10</tspan></tspan></tspan></text>
 <text class="TextShape"><tspan class="TextParagraph" font-family="Liberation Sans, sans-serif" font-size="353px" font-weight="400"><tspan class="TextPosition" x="8907" y="10347"><tspan fill="rgb(0,0,0)" stroke="none">11</tspan></tspan></tspan></text>
 <text class="TextShape"><tspan class="TextParagraph" font-family="Liberation Sans, sans-serif" font-size="353px" font-weight="400"><tspan class="TextPosition" x="9601" y="10347"><tspan fill="rgb(0,0,0)" stroke="none">12</tspan></tspan></tspan></text>
 <text class="TextShape"><tspan class="TextParagraph" font-family="Liberation Sans, sans-serif" font-size="353px" font-weight="400"><tspan class="TextPosition" x="10295" y="10347"><tspan fill="rgb(0,0,0)" stroke="none">13</tspan></tspan></tspan></text>
 <text class="TextShape"><tspan class="TextParagraph" font-family="Liberation Sans, sans-serif" font-size="353px" font-weight="400"><tspan class="TextPosition" x="10989" y="10347"><tspan fill="rgb(0,0,0)" stroke="none">14</tspan></tspan></tspan></text>
 <text class="TextShape"><tspan class="TextParagraph" font-family="Liberation Sans, sans-serif" font-size="353px" font-weight="400"><tspan class="TextPosition" x="11683" y="10347"><tspan fill="rgb(0,0,0)" stroke="none">15</tspan></tspan></tspan></text>
 <text class="TextShape"><tspan class="TextParagraph" font-family="Liberation Sans, sans-serif" font-size="353px" font-weight="400"><tspan class="TextPosition" x="12377" y="10347"><tspan fill="rgb(0,0,0)" stroke="none">16</tspan></tspan></tspan></text>
 <text class="TextShape"><tspan class="TextParagraph" font-family="Liberation Sans, sans-serif" font-size="353px" font-weight="400"><tspan class="TextPosition" x="13072" y="10347"><tspan fill="rgb(0,0,0)" stroke="none">17</tspan></tspan></tspan></text>
 <text class="TextShape"><tspan class="TextParagraph" font-family="Liberation Sans, sans-serif" font-size="353px" font-weight="400"><tspan class="TextPosition" x="13766" y="10347"><tspan fill="rgb(0,0,0)" stroke="none">18</tspan></tspan></tspan></text>
 <text class="TextShape"><tspan class="TextParagraph" font-family="Liberation Sans, sans-serif" font-size="353px" font-weight="400"><tspan class="TextPosition" x="14460" y="10347"><tspan fill="rgb(0,0,0)" stroke="none">19</tspan></tspan></tspan></text>
 <text class="TextShape"><tspan class="TextParagraph" font-family="Liberation Sans, sans-serif" font-size="353px" font-weight="400"><tspan class="TextPosition" x="15154" y="10347"><tspan fill="rgb(0,0,0)" stroke="none">20</tspan></tspan></tspan></text>
 <text class="TextShape"><tspan class="TextParagraph" font-family="Liberation Sans, sans-serif" font-size="353px" font-weight="400"><tspan class="TextPosition" x="15848" y="10347"><tspan fill="rgb(0,0,0)" stroke="none">21</tspan></tspan></tspan></text>
 <text class="TextShape"><tspan class="TextParagraph" font-family="Liberation Sans, sans-serif" font-size="353px" font-weight="400"><tspan class="TextPosition" x="16542" y="10347"><tspan fill="rgb(0,0,0)" stroke="none">22</tspan></tspan></tspan></text>
 <text class="TextShape"><tspan class="TextParagraph" font-family="Liberation Sans, sans-serif" font-size="353px" font-weight="400"><tspan class="TextPosition" x="17236" y="10347"><tspan fill="rgb(0,0,0)" stroke="none">23</tspan></tspan></tspan></text>
 <text class="TextShape"><tspan class="TextParagraph" font-family="Liberation Sans, sans-serif" font-size="353px" font-weight="400"><tspan class="TextPosition" x="17931" y="10347"><tspan fill="rgb(0,0,0)" stroke="none">24</tspan></tspan></tspan></text>
 <text class="TextShape"><tspan class="TextParagraph" font-family="Liberation Sans, sans-serif" font-size="353px" font-weight="400"><tspan class="TextPosition" x="1716" y="9900"><tspan fill="rgb(0,0,0)" stroke="none">0</tspan></tspan></tspan></text>
 <text class="TextShape"><tspan class="TextParagraph" font-family="Liberation Sans, sans-serif" font-size="353px" font-weight="400"><tspan class="TextPosition" x="1425" y="8685"><tspan fill="rgb(0,0,0)" stroke="none">0.1</tspan></tspan></tspan></text>
 <text class="TextShape"><tspan class="TextParagraph" font-family="Liberation Sans, sans-serif" font-size="353px" font-weight="400"><tspan class="TextPosition" x="1425" y="7471"><tspan fill="rgb(0,0,0)" stroke="none">0.2</tspan></tspan></tspan></text>
 <text class="TextShape"><tspan class="TextParagraph" font-family="Liberation Sans, sans-serif" font-size="353px" font-weight="400"><tspan class="TextPosition" x="1425" y="6256"><tspan fill="rgb(0,0,0)" stroke="none">0.3</tspan></tspan></tspan></text>
 <text class="TextShape"><tspan class="TextParagraph" font-family="Liberation Sans, sans-serif" font-size="353px" font-weight="400"><tspan class="TextPosition" x="1425" y="5041"><tspan fill="rgb(0,0,0)" stroke="none">0.4</tspan></tspan></tspan></text>
 <text class="TextShape"><tspan class="TextParagraph" font-family="Liberation Sans, sans-serif" font-size="353px" font-weight="400"><tspan class="TextPosition" x="1425" y="3827"><tspan fill="rgb(0,0,0)" stroke="none">0.5</tspan></tspan></tspan></text>
 <text class="TextShape"><tspan class="TextParagraph" font-family="Liberation Sans, sans-serif" font-size="353px" font-weight="400"><tspan class="TextPosition" x="1425" y="2612"><tspan fill="rgb(0,0,0)" stroke="none">0.6</tspan></tspan></tspan></text>
 <text class="TextShape"><tspan class="TextParagraph" font-family="Liberation Sans, sans-serif" font-size="459px" font-weight="400"><tspan class="TextPosition" x="9011" y="903"><tspan fill="rgb(0,0,0)" stroke="none">Training Loss</tspan></tspan></tspan></text>
 <text class="TextShape"><tspan class="TextParagraph" font-family="Liberation Sans, sans-serif" font-size="388px" font-weight="400"><tspan class="TextPosition" x="7767" y="1865"><tspan fill="rgb(0,0,0)" stroke="none">Rubix ML Logistic Regression</tspan></tspan></tspan></text>
 <path fill="none" stroke="rgb(255,56,56)" stroke-width="80" stroke-linejoin="round" d="M 18831,5819 L 19631,5819"/>
 <text class="TextShape"><tspan class="TextParagraph" font-family="Liberation Sans, sans-serif" font-size="353px" font-weight="400"><tspan class="TextPosition" x="19731" y="5938"><tspan fill="rgb(0,0,0)" stroke="none">loss</tspan></tspan></tspan></text>
 <text class="TextShape"><tspan class="TextParagraph" font-family="Liberation Sans, sans-serif" font-size="318px" font-weight="400"><tspan class="TextPosition" x="9400" y="11046"><tspan fill="rgb(0,0,0)" stroke="none">Epoch</tspan></tspan></tspan></text>
 <text class="TextShape" transform="rotate(-90 837 7379)"><tspan class="TextParagraph" font-family="Liberation Sans, sans-serif" font-size="318px" font-weight="400"><tspan class="TextPosition" x="837" y="7379"><tspan fill="rgb(0,0,0)" stroke="none">Cross Entropy</tspan></tspan></tspan></text>
</svg>