<?xml version="1.0" encoding="UTF-8"?>
<!DOCTYPE svg PUBLIC "-//W3C//DTD SVG 1.1//EN" "http://www.w3.org/Graphics/SVG/1.1/DTD/svg11.dtd">
<svg width="160mm" height="90mm" viewBox="0 0 16000 9000" version="1.1" xmlns="http://www.w3.org/2000/svg" xmlns:xlink="http://www.w3.org/1999/xlink" stroke-width="28.222" stroke-linejoin="round" xml:space="preserve">
 <path fill="rgb(255,255,255)" stroke="none" d="M 8000,8999 L 0,8999 0,0 15999,0 15999,8999 8000,8999 Z"/>
 <path fill="none" stroke="rgb(179,179,179)" stroke-linejoin="round" d="M 7810,7046 L 2058,7046 2058,2338 13561,2338 13561,7046 7810,7046 Z"/>
 <path fill="none" stroke="rgb(179,179,179)" stroke-linejoin="round" d="M 13561,7045 L 2058,7045"/>
 <path fill="none" stroke="rgb(179,179,179)" stroke-linejoin="round" d="M 13561,6260 L 2058,6260"/>
 <path fill="none" stroke="rgb(179,179,179)" stroke-linejoin="round" d="M 13561,5475 L 2058,5475"/>
 <path fill="none" stroke="rgb(179,179,179)" stroke-linejoin="round" d="M 13561,4690 L 2058,4690"/>
 <path fill="none" stroke="rgb(179,179,179)" stroke-linejoin="round" d="M 13561,3906 L 2058,3906"/>
 <path fill="none" stroke="rgb(179,179,179)" stroke-linejoin="round" d="M 13561,3121 L 2058,3121"/>
 <path fill="none" stroke="rgb(179,179,179)" stroke-linejoin="round" d="M 13561,2336 L 2058,2336"/>
 <path fill="none" stroke="rgb(179,179,179)" stroke-linejoin="round" d="M 2058,7195 L 2058,7045"/>
 <path fill="none" stroke="rgb(179,179,179)" stroke-linejoin="round" d="M 2058,7195 L 2058,7045"/>
 <path fill="none" stroke="rgb(179,179,179)" stroke-linejoin="round" d="M 2417,7195 L 2417,7045"/>
 <path fill="none" stroke="rgb(179,179,179)" stroke-linejoin="round" d="M 2417,7195 L 2417,7045"/>
 <path fill="none" stroke="rgb(179,179,179)" stroke-linejoin="round" d="M 2777,7195 L 2777,7045"/>
 <path fill="none" stroke="rgb(179,179,179)" stroke-linejoin="round" d="M 2777,7195 L 2777,7045"/>
 <path fill="none" stroke="rgb(179,179,179)" stroke-linejoin="round" d="M 3136,7195 L 3136,7045"/>
 <path fill="none" stroke="rgb(179,179,179)" stroke-linejoin="round" d="M 3136,7195 L 3136,7045"/>
 <path fill="none" stroke="rgb(179,179,179)" stroke-linejoin="round" d="M 3496,7195 L 3496,7045"/>
 <path fill="none" stroke="rgb(179,179,179)" stroke-linejoin="round" d="M 3496,7195 L 3496,7045"/>
 <path fill="none" stroke="rgb(179,179,179)" stroke-linejoin="round" d="M 3855,7195 L 3855,7045"/>
 <path fill="none" stroke="rgb(179,179,179)" stroke-linejoin="round" d="M 3855,7195 L 3855,7045"/>
 <path fill="none" stroke="rgb(179,179,179)" stroke-linejoin="round" d="M 4215,7195 L 4215,7045"/>
 <path fill="none" stroke="rgb(179,179,179)" stroke-linejoin="round" d="M 4215,7195 L 4215,7045"/>
 <path fill="none" stroke="rgb(179,179,179)" stroke-linejoin="round" d="M 4574,7195 L 4574,7045"/>
 <path fill="none" stroke="rgb(179,179,179)" stroke-linejoin="round" d="M 4574,7195 L 4574,7045"/>
 <path fill="none" stroke="rgb(179,179,179)" stroke-linejoin="round" d="M 4934,7195 L 4934,7045"/>
 <path fill="none" stroke="rgb(179,179,179)" stroke-linejoin="round" d="M 4934,7195 L 4934,7045"/>
 <path fill="none" stroke="rgb(179,179,179)" stroke-linejoin="round" d="M 5293,7195 L 5293,7045"/>
 <path fill="none" stroke="rgb(179,179,179)" stroke-linejoin="round" d="M 5293,7195 L 5293,7045"/>
 <path fill="none" stroke="rgb(179,179,179)" stroke-linejoin="round" d="M 5653,7195 L 5653,7045"/>
 <path fill="none" stroke="rgb(179,179,179)" stroke-linejoin="round" d="M 5653,7195 L 5653,7045"/>
 <path fill="none" stroke="rgb(179,179,179)" stroke-linejoin="round" d="M 6012,7195 L 6012,7045"/>
 <path fill="none" stroke="rgb(179,179,179)" stroke-linejoin="round" d="M 6012,7195 L 6012,7045"/>
 <path fill="none" stroke="rgb(179,179,179)" stroke-linejoin="round" d="M 6372,7195 L 6372,7045"/>
 <path fill="none" stroke="rgb(179,179,179)" stroke-linejoin="round" d="M 6372,7195 L 6372,7045"/>
 <path fill="none" stroke="rgb(179,179,179)" stroke-linejoin="round" d="M 6731,7195 L 6731,7045"/>
 <path fill="none" stroke="rgb(179,179,179)" stroke-linejoin="round" d="M 6731,7195 L 6731,7045"/>
 <path fill="none" stroke="rgb(179,179,179)" stroke-linejoin="round" d="M 7091,7195 L 7091,7045"/>
 <path fill="none" stroke="rgb(179,179,179)" stroke-linejoin="round" d="M 7091,7195 L 7091,7045"/>
 <path fill="none" stroke="rgb(179,179,179)" stroke-linejoin="round" d="M 7450,7195 L 7450,7045"/>
 <path fill="none" stroke="rgb(179,179,179)" stroke-linejoin="round" d="M 7450,7195 L 7450,7045"/>
 <path fill="none" stroke="rgb(179,179,179)" stroke-linejoin="round" d="M 7810,7195 L 7810,7045"/>
 <path fill="none" stroke="rgb(179,179,179)" stroke-linejoin="round" d="M 7810,7195 L 7810,7045"/>
 <path fill="none" stroke="rgb(179,179,179)" stroke-linejoin="round" d="M 8168,7195 L 8168,7045"/>
 <path fill="none" stroke="rgb(179,179,179)" stroke-linejoin="round" d="M 8168,7195 L 8168,7045"/>
 <path fill="none" stroke="rgb(179,179,179)" stroke-linejoin="round" d="M 8528,7195 L 8528,7045"/>
 <path fill="none" stroke="rgb(179,179,179)" stroke-linejoin="round" d="M 8528,7195 L 8528,7045"/>
 <path fill="none" stroke="rgb(179,179,179)" stroke-linejoin="round" d="M 8887,7195 L 8887,7045"/>
 <path fill="none" stroke="rgb(179,179,179)" stroke-linejoin="round" d="M 8887,7195 L 8887,7045"/>
 <path fill="none" stroke="rgb(179,179,179)" stroke-linejoin="round" d="M 9247,7195 L 9247,7045"/>
 <path fill="none" stroke="rgb(179,179,179)" stroke-linejoin="round" d="M 9247,7195 L 9247,7045"/>
 <path fill="none" stroke="rgb(179,179,179)" stroke-linejoin="round" d="M 9606,7195 L 9606,7045"/>
 <path fill="none" stroke="rgb(179,179,179)" stroke-linejoin="round" d="M 9606,7195 L 9606,7045"/>
 <path fill="none" stroke="rgb(179,179,179)" stroke-linejoin="round" d="M 9966,7195 L 9966,7045"/>
 <path fill="none" stroke="rgb(179,179,179)" stroke-linejoin="round" d="M 9966,7195 L 9966,7045"/>
 <path fill="none" stroke="rgb(179,179,179)" stroke-linejoin="round" d="M 10325,7195 L 10325,7045"/>
 <path fill="none" stroke="rgb(179,179,179)" stroke-linejoin="round" d="M 10325,7195 L 10325,7045"/>
 <path fill="none" stroke="rgb(179,179,179)" stroke-linejoin="round" d="M 10685,7195 L 10685,7045"/>
 <path fill="none" stroke="rgb(179,179,179)" stroke-linejoin="round" d="M 10685,7195 L 10685,7045"/>
 <path fill="none" stroke="rgb(179,179,179)" stroke-linejoin="round" d="M 11044,7195 L 11044,7045"/>
 <path fill="none" stroke="rgb(179,179,179)" stroke-linejoin="round" d="M 11044,7195 L 11044,7045"/>
 <path fill="none" stroke="rgb(179,179,179)" stroke-linejoin="round" d="M 11404,7195 L 11404,7045"/>
 <path fill="none" stroke="rgb(179,179,179)" stroke-linejoin="round" d="M 11404,7195 L 11404,7045"/>
 <path fill="none" stroke="rgb(179,179,179)" stroke-linejoin="round" d="M 11763,7195 L 11763,7045"/>
 <path fill="none" stroke="rgb(179,179,179)" stroke-linejoin="round" d="M 11763,7195 L 11763,7045"/>
 <path fill="none" stroke="rgb(179,179,179)" stroke-linejoin="round" d="M 12123,7195 L 12123,7045"/>
 <path fill="none" stroke="rgb(179,179,179)" stroke-linejoin="round" d="M 12123,7195 L 12123,7045"/>
 <path fill="none" stroke="rgb(179,179,179)" stroke-linejoin="round" d="M 12482,7195 L 12482,7045"/>
 <path fill="none" stroke="rgb(179,179,179)" stroke-linejoin="round" d="M 12482,7195 L 12482,7045"/>
 <path fill="none" stroke="rgb(179,179,179)" stroke-linejoin="round" d="M 12842,7195 L 12842,7045"/>
 <path fill="none" stroke="rgb(179,179,179)" stroke-linejoin="round" d="M 12842,7195 L 12842,7045"/>
 <path fill="none" stroke="rgb(179,179,179)" stroke-linejoin="round" d="M 13201,7195 L 13201,7045"/>
 <path fill="none" stroke="rgb(179,179,179)" stroke-linejoin="round" d="M 13201,7195 L 13201,7045"/>
 <path fill="none" stroke="rgb(179,179,179)" stroke-linejoin="round" d="M 13561,7195 L 13561,7045"/>
 <path fill="none" stroke="rgb(179,179,179)" stroke-linejoin="round" d="M 13561,7195 L 13561,7045"/>
 <path fill="none" stroke="rgb(179,179,179)" stroke-linejoin="round" d="M 2058,7045 L 13561,7045"/>
 <path fill="none" stroke="rgb(179,179,179)" stroke-linejoin="round" d="M 1908,7045 L 2058,7045"/>
 <path fill="none" stroke="rgb(179,179,179)" stroke-linejoin="round" d="M 1908,7045 L 2058,7045"/>
 <path fill="none" stroke="rgb(179,179,179)" stroke-linejoin="round" d="M 1908,6260 L 2058,6260"/>
 <path fill="none" stroke="rgb(179,179,179)" stroke-linejoin="round" d="M 1908,6260 L 2058,6260"/>
 <path fill="none" stroke="rgb(179,179,179)" stroke-linejoin="round" d="M 1908,5475 L 2058,5475"/>
 <path fill="none" stroke="rgb(179,179,179)" stroke-linejoin="round" d="M 1908,5475 L 2058,5475"/>
 <path fill="none" stroke="rgb(179,179,179)" stroke-linejoin="round" d="M 1908,4690 L 2058,4690"/>
 <path fill="none" stroke="rgb(179,179,179)" stroke-linejoin="round" d="M 1908,4690 L 2058,4690"/>
 <path fill="none" stroke="rgb(179,179,179)" stroke-linejoin="round" d="M 1908,3906 L 2058,3906"/>
 <path fill="none" stroke="rgb(179,179,179)" stroke-linejoin="round" d="M 1908,3906 L 2058,3906"/>
 <path fill="none" stroke="rgb(179,179,179)" stroke-linejoin="round" d="M 1908,3121 L 2058,3121"/>
 <path fill="none" stroke="rgb(179,179,179)" stroke-linejoin="round" d="M 1908,3121 L 2058,3121"/>
 <path fill="none" stroke="rgb(179,179,179)" stroke-linejoin="round" d="M 1908,2336 L 2058,2336"/>
 <path fill="none" stroke="rgb(179,179,179)" stroke-linejoin="round" d="M 1908,2336 L 2058,2336"/>
 <path fill="none" stroke="rgb(179,179,179)" stroke-linejoin="round" d="M 2058,7045 L 2058,2337"/>
 <path fill="none" stroke="rgb(255,56,56)" stroke-width="80" stroke-linejoin="round" d="M 2058,2687 L 2417,3802 2777,4310 3136,4635 3496,4868 3855,5039 4215,5174 4574,5273 4934,5349 5293,5412 5653,5461 6012,5501 6372,5534 6731,5561 7091,5583 7450,5602 7810,5619 8168,5633 8528,5643 8887,5657 9247,5666 9606,5672 9966,5678 10325,5686 10685,5687 11044,5694 11404,5699 11763,5703 12123,5705 12482,5708 12842,5711 13201,5714 13561,5714"/>
 <text class="TextShape" transform="rotate(-44.9 2010 7652)"><tspan class="TextParagraph" font-family="Liberation Sans, sans-serif" font-size="353px" font-weight="400"><tspan class="TextPosition" x="2010" y="7652"><tspan fill="rgb(0,0,0)" stroke="none">1</tspan></tspan></tspan></text>
 <text class="TextShape" transform="rotate(-44.9 2729 7652)"><tspan class="TextParagraph" font-family="Liberation Sans, sans-serif" font-size="353px" font-weight="400"><tspan class="TextPosition" x="2729" y="7652"><tspan fill="rgb(0,0,0)" stroke="none">3</tspan></tspan></tspan></text>
 <text class="TextShape" transform="rotate(-44.9 3448 7652)"><tspan class="TextParagraph" font-family="Liberation Sans, sans-serif" font-size="353px" font-weight="400"><tspan class="TextPosition" x="3448" y="7652"><tspan fill="rgb(0,0,0)" stroke="none">5</tspan></tspan></tspan></text>
 <text class="TextShape" transform="rotate(-44.9 4167 7652)"><tspan class="TextParagraph" font-family="Liberation Sans, sans-serif" font-size="353px" font-weight="400"><tspan class="TextPosition" x="4167" y="7652"><tspan fill="rgb(0,0,0)" stroke="none">7</tspan></tspan></tspan></text>
 <text class="TextShape" transform="rotate(-44.9 4886 7652)"><tspan class="TextParagraph" font-family="Liberation Sans, sans-serif" font-size="353px" font-weight="400"><tspan class="TextPosition" x="4886" y="7652"><tspan fill="rgb(0,0,0)" stroke="none">9</tspan></tspan></tspan></text>
 <text class="TextShape" transform="rotate(-44.9 5474 7782)"><tspan class="TextParagraph" font-family="Liberation Sans, sans-serif" font-size="353px" font-weight="400"><tspan class="TextPosition" x="5474" y="7782"><tspan fill="rgb(0,0,0)" stroke="none">11</tspan></tspan></tspan></text>
 <text class="TextShape" transform="rotate(-44.9 6193 7782)"><tspan class="TextParagraph" font-family="Liberation Sans, sans-serif" font-size="353px" font-weight="400"><tspan class="TextPosition" x="6193" y="7782"><tspan fill="rgb(0,0,0)" stroke="none">13</tspan></tspan></tspan></text>
 <text class="TextShape" transform="rotate(-44.9 6912 7782)"><tspan class="TextParagraph" font-family="Liberation Sans, sans-serif" font-size="353px" font-weight="400"><tspan class="TextPosition" x="6912" y="7782"><tspan fill="rgb(0,0,0)" stroke="none">15</tspan></tspan></tspan></text>
 <text class="TextShape" transform="rotate(-44.9 7631 7782)"><tspan class="TextParagraph" font-family="Liberation Sans, sans-serif" font-size="353px" font-weight="400"><tspan class="TextPosition" x="7631" y="7782"><tspan fill="rgb(0,0,0)" stroke="none">17</tspan></tspan></tspan></text>
 <text class="TextShape" transform="rotate(-44.9 8350 7782)"><tspan class="TextParagraph" font-family="Liberation Sans, sans-serif" font-size="353px" font-weight="400"><tspan class="TextPosition" x="8350" y="7782"><tspan fill="rgb(0,0,0)" stroke="none">19</tspan></tspan></tspan></text>
 <text class="TextShape" transform="rotate(-44.9 9069 7782)"><tspan class="TextParagraph" font-family="Liberation Sans, sans-serif" font-size="353px" font-weight="400"><tspan class="TextPosition" x="9069" y="7782"><tspan fill="rgb(0,0,0)" stroke="none">21</tspan></tspan></tspan></text>
 <text class="TextShape" transform="rotate(-44.9 9788 7782)"><tspan class="TextParagraph" font-family="Liberation Sans, sans-serif" font-size="353px" font-weight="400"><tspan class="TextPosition" x="9788" y="7782"><tspan fill="rgb(0,0,0)" stroke="none">23</tspan></tspan></tspan></text>
 <text class="TextShape" transform="rotate(-44.9 10507 7782)"><tspan class="TextParagraph" font-family="Liberation Sans, sans-serif" font-size="353px" font-weight="400"><tspan class="TextPosition" x="10507" y="7782"><tspan fill="rgb(0,0,0)" stroke="none">25</tspan></tspan></tspan></text>
 <text class="TextShape" transform="rotate(-44.9 11226 7782)"><tspan class="TextParagraph" font-family="Liberation Sans, sans-serif" font-size="353px" font-weight="400"><tspan class="TextPosition" x="11226" y="7782"><tspan fill="rgb(0,0,0)" stroke="none">27</tspan></tspan></tspan></text>
 <text class="TextShape" transform="rotate(-44.9 11944 7782)"><tspan class="TextParagraph" font-family="Liberation Sans, sans-serif" font-size="353px" font-weight="400"><tspan class="TextPosition" x="11944" y="7782"><tspan fill="rgb(0,0,0)" stroke="none">29</tspan></tspan></tspan></text>
 <text class="TextShape" transform="rotate(-44.9 12663 7782)"><tspan class="TextParagraph" font-family="Liberation Sans, sans-serif" font-size="353px" font-weight="400"><tspan class="TextPosition" x="12663" y="7782"><tspan fill="rgb(0,0,0)" stroke="none">31</tspan></tspan></tspan></text>
 <text class="TextShape" transform="rotate(-44.9 13382 7782)"><tspan class="TextParagraph" font-family="Liberation Sans, sans-serif" font-size="353px" font-weight="400"><tspan class="TextPosition" x="13382" y="7782"><tspan fill="rgb(0,0,0)" stroke="none">33</tspan></tspan></tspan></text>
 <text class="TextShape"><tspan class="TextParagraph" font-family="Liberation Sans, sans-serif" font-size="353px" font-weight="400"><tspan class="TextPosition" x="1623" y="7166"><tspan fill="rgb(0,0,0)" stroke="none">0</tspan></tspan></tspan></text>
 <text class="TextShape"><tspan class="TextParagraph" font-family="Liberation Sans, sans-serif" font-size="353px" font-weight="400"><tspan class="TextPosition" x="1332" y="6381"><tspan fill="rgb(0,0,0)" stroke="none">0.1</tspan></tspan></tspan></text>
 <text class="TextShape"><tspan class="TextParagraph" font-family="Liberation Sans, sans-serif" font-size="353px" font-weight="400"><tspan class="TextPosition" x="1332" y="5596"><tspan fill="rgb(0,0,0)" stroke="none">0.2</tspan></tspan></tspan></text>
 <text class="TextShape"><tspan class="TextParagraph" font-family="Liberation Sans, sans-serif" font-size="353px" font-weight="400"><tspan class="TextPosition" x="1332" y="4811"><tspan fill="rgb(0,0,0)" stroke="none">0.3</tspan></tspan></tspan></text>
 <text class="TextShape"><tspan class="TextParagraph" font-family="Liberation Sans, sans-serif" font-size="353px" font-weight="400"><tspan class="TextPosition" x="1332" y="4026"><tspan fill="rgb(0,0,0)" stroke="none">0.4</tspan></tspan></tspan></text>
 <text class="TextShape"><tspan class="TextParagraph" font-family="Liberation Sans, sans-serif" font-size="353px" font-weight="400"><tspan class="TextPosition" x="1332" y="3241"><tspan fill="rgb(0,0,0)" stroke="none">0.5</tspan></tspan></tspan></text>
 <text class="TextShape"><tspan class="TextParagraph" font-family="Liberation Sans, sans-serif" font-size="353px" font-weight="400"><tspan class="TextPosition" x="1332" y="2456"><tspan fill="rgb(0,0,0)" stroke="none">0.6</tspan></tspan></tspan></text>
 <text class="TextShape"><tspan class="TextParagraph" font-family="Liberation Sans, sans-serif" font-size="459px" font-weight="400"><tspan class="TextPosition" x="6664" y="851"><tspan fill="rgb(0,0,0)" stroke="none">Training Loss</tspan></tspan></tspan></text>
 <text class="TextShape"><tspan class="TextParagraph" font-family="Liberation Sans, sans-serif" font-size="388px" font-weight="400"><tspan class="TextPosition" x="5420" y="1761"><tspan fill="rgb(0,0,0)" stroke="none">Rubix ML Logistic Regression</tspan></tspan></tspan></text>
 <path fill="none" stroke="rgb(255,56,56)" stroke-width="80" stroke-linejoin="round" d="M 14136,4499 L 14936,4499"/>
 <text class="TextShape"><tspan class="TextParagraph" font-family="Liberation Sans, sans-serif" font-size="353px" font-weight="400"><tspan class="TextPosition" x="15036" y="4618"><tspan fill="rgb(0,0,0)" stroke="none">loss</tspan></tspan></tspan></text>
 <text class="TextShape"><tspan class="TextParagraph" font-family="Liberation Sans, sans-serif" font-size="318px" font-weight="400"><tspan class="TextPosition" x="7053" y="8405"><tspan fill="rgb(0,0,0)" stroke="none">Epoch</tspan></tspan></tspan></text>
 <text class="TextShape" transform="rotate(-90 837 6006)"><tspan class="TextParagraph" font-family="Liberation Sans, sans-serif" font-size="318px" font-weight="400"><tspan class="TextPosition" x="837" y="6006"><tspan fill="rgb(0,0,0)" stroke="none">Cross Entropy</tspan></tspan></tspan></text>
</svg>